:SAMPLES-PER-SECOND 30
:FULLY-SPECIFIED
:DEGREES
236
root  1.30428 31.288 -8.12386 -79.4572 -86.8531 74.0334
RightUpLeg  -35.071 -23.047 -3.94382
RightLeg  79.0248 -3.17581 -20.7992
RightFoot  -29.7411 1.70382 11.7432
RightToes  -1.33073e-015 0 -3.6325e-017
Spine  32.57 0.218744 -0.150325
Spine1  -10.9806 0.360548 -1.05904
HEad  -24.2498 4.03871 -5.15309
LeftShoulder1  0.514253 8.75141 20.8165
LeftArm  -76.5322 -8.7515 -10.6344
LeftForeArm  -18.398 -70.1899 -37.8701
LeftHand  0.412341 6.53262 38.882
RightShoulder  0.0202983 -6.09263 -10.3768
RightArm  -77.4874 -4.93785 -3.53217
RightForeArm  -42.0445 62.917 26.4494
RightHand  -1.48437 -0.971692 -38.3642
LeftUpLeg  -36.0087 29.6467 0.554019
LeftLeg  75.6484 2.72943 13.5111
LeftFoot  -30.3985 -1.26436 -8.60973
LeftToes  -4.0021e-011 8.38769e-011 -3.99229e-011
237
root  0.874459 32.2044 -7.69121 -67.8043 -86.834 61.5608
RightUpLeg  -30.6181 -22.8977 -5.68089
RightLeg  74.7641 -4.69707 -20.1438
RightFoot  -27.683 1.61985 12.5547
RightToes  -1.33073e-015 0 -3.6325e-017
Spine  31.2227 -0.365646 0.412945
Spine1  -12.131 -0.113815 -1.20942
HEad  -17.7039 5.16709 -4.86167
LeftShoulder1  0.260916 7.43464 17.1569
LeftArm  -68.2368 -8.07348 -20.0345
LeftForeArm  17.676 -77.1564 -71.0301
LeftHand  0.3811 6.4494 38.6977
RightShoulder  -0.0405857 -5.10505 -6.52653
RightArm  -72.2247 -5.39416 6.37601
RightForeArm  -13.3926 73.3334 47.5271
RightHand  -2.36103 2.44369 -34.0609
LeftUpLeg  -31.6707 29.3013 0.91825
LeftLeg  71.4059 3.65975 12.9735
LeftFoot  -29.8223 -1.22928 -8.62481
LeftToes  -4.0021e-011 8.38769e-011 -3.99229e-011
238
root  0.313693 33.7112 -7.23722 -57.6863 -86.6503 51.9268
RightUpLeg  -25.5932 -22.9581 -7.13073
RightLeg  66.9772 -7.13008 -18.5133
RightFoot  -25.089 1.37871 12.7922
RightToes  -1.33073e-015 0 -3.6325e-017
Spine  28.7383 -0.777906 0.473403
Spine1  -14.3042 -0.622577 -0.326178
HEad  -11.3146 6.28595 -5.29833
LeftShoulder1  -0.0154468 5.45467 7.94778
LeftArm  -56.9973 -4.50386 -27.0828
LeftForeArm  64.9403 -77.1277 -112.659
LeftHand  0.434252 6.61052 38.4687
RightShoulder  -0.0129657 -3.71469 0.0204383
RightArm  -65.1058 -6.83382 16.7643
RightForeArm  36.635 77.9585 89.7561
RightHand  -2.53557 2.74418 -35.3967
LeftUpLeg  -27.4929 29.4343 0.917542
LeftLeg  64.7081 4.65153 11.4113
LeftFoot  -26.0904 -0.996949 -8.87904
LeftToes  -4.0021e-011 8.38769e-011 -3.99229e-011
239
root  -0.248549 35.4742 -6.75681 -59.1122 -86.5503 54.0317
RightUpLeg  -19.9793 -23.8794 -8.76406
RightLeg  56.8102 -9.11205 -15.0937
RightFoot  -21.105 0.905943 12.2153
RightToes  -1.33073e-015 0 -3.6325e-017
Spine  26.0275 -0.831306 0.668654
Spine1  -15.6675 -0.709421 0.178993
HEad  -8.09841 7.03227 -5.88896
LeftShoulder1  0.143156 2.51635 -4.99247
LeftArm  -49.2667 3.10025 -29.1271
LeftForeArm  86.6928 -74.8977 -129.203
LeftHand  0.357097 6.38941 38.4361
RightShoulder  0.270506 -1.81579 8.33483
RightArm  -59.9928 -12.3844 24.6801
RightForeArm  71.4642 76.2911 119.614
RightHand  -2.25595 1.31365 -37.9208
LeftUpLeg  -23.3187 30.7496 1.52161
LeftLeg  57.687 3.25785 6.19983
LeftFoot  -18.6472 -0.595239 -11.6421
LeftToes  -4.0021e-011 8.38769e-011 -3.99229e-011
240
root  -0.766212 37.1753 -6.28052 -71.7816 -86.601 66.8853
RightUpLeg  -13.5598 -25.6084 -10.7556
RightLeg  45.2826 -9.68236 -10.6342
RightFoot  -16.3891 0.406865 11.772
RightToes  -1.33073e-015 0 -3.6325e-017
Spine  23.7265 -0.452992 1.38866
Spine1  -16.0325 -0.211832 -0.500926
HEad  -6.80339 7.14132 -5.5919
LeftShoulder1  0.932482 -0.694131 -15.7558
LeftArm  -46.4519 11.5216 -29.5559
LeftForeArm  90.6902 -74.2811 -131.996
LeftHand  0.261968 6.09183 39.2907
RightShoulder  0.789828 -0.0253473 16.2421
RightArm  -59.1301 -20.1609 30.5894
RightForeArm  84.9641 73.818 132.808
RightHand  -2.28484 1.28279 -38.5745
LeftUpLeg  -18.5688 32.4121 3.47992
LeftLeg  51.2832 -1.0882 -0.948766
LeftFoot  -10.6929 0.160745 -17.7501
LeftToes  -4.0021e-011 8.38769e-011 -3.99229e-011
241
root  -1.21489 38.5394 -5.82449 -89.421 -86.4357 84.885
RightUpLeg  -7.93851 -27.2488 -12.6641
RightLeg  34.3498 -8.9019 -6.72836
RightFoot  -11.7275 -0.0423727 12.472
RightToes  -1.33073e-015 0 -3.6325e-017
Spine  21.1821 0.282125 1.91125
Spine1  -15.6107 0.616683 -1.56004
HEad  -5.73043 6.86767 -4.57244
LeftShoulder1  1.55099 -2.43366 -19.8243
LeftArm  -45.8691 16.6843 -31.7894
LeftForeArm  84.9337 -74.8462 -128.922
LeftHand  0.272879 6.10579 40.0307
RightShoulder  1.13261 0.765061 20.3484
RightArm  -60.3831 -25.1262 35.1515
RightForeArm  88.045 71.8877 138.902
RightHand  -2.63275 2.41309 -38.0383
LeftUpLeg  -14.1138 32.3585 5.73705
LeftLeg  44.9347 -4.10357 -4.03655
LeftFoot  -7.22419 0.811149 -21.6782
LeftToes  -4.0021e-011 8.38769e-011 -3.99229e-011
242
root  -1.50891 39.429 -5.38175 -103.578 -85.9767 100.116
RightUpLeg  -5.04337 -27.8703 -13.7994
RightLeg  26.3884 -7.77221 -4.37556
RightFoot  -7.25095 -0.547859 13.8941
RightToes  -1.33073e-015 0 -3.6325e-017
Spine  18.1066 1.04379 1.58465
Spine1  -14.5261 1.29701 -2.15388
HEad  -4.85293 6.74919 -3.59213
LeftShoulder1  1.40697 -2.20483 -17.972
LeftArm  -45.5914 16.5204 -33.779
LeftForeArm  80.0275 -75.1857 -126.688
LeftHand  0.182751 5.86672 39.2376
RightShoulder  1.02666 0.519095 19.0889
RightArm  -60.6232 -24.3615 36.8481
RightForeArm  88.0853 70.9745 141.145
RightHand  -2.59232 2.40763 -37.52
LeftUpLeg  -11.3356 29.1842 7.05527
LeftLeg  38.1918 -0.367989 -0.0666707
LeftFoot  -8.60286 0.51742 -18.7055
LeftToes  -4.0021e-011 8.38769e-011 -3.99229e-011
243
root  -1.58795 39.7823 -4.94634 -113.554 -85.6936 111.392
RightUpLeg  -5.13466 -27.1322 -13.8054
RightLeg  22.9504 -7.44501 -3.6476
RightFoot  -4.26235 -0.937658 14.6651
RightToes  -1.33073e-015 0 -3.6325e-017
Spine  15.9446 1.4515 1.02281
Spine1  -13.8963 1.59817 -2.30443
HEad  -4.24552 6.91313 -2.75796
LeftShoulder1  0.893119 -0.825664 -13.6039
LeftArm  -45.9704 11.5203 -32.0982
LeftForeArm  79.7602 -75.1007 -127.055
LeftHand  -0.0412734 5.22963 36.662
RightShoulder  0.710188 -0.209358 14.8036
RightArm  -60.1607 -18.4258 34.0046
RightForeArm  87.6827 71.6295 139.512
RightHand  -2.17874 1.46366 -35.9394
LeftUpLeg  -10.4412 23.6398 8.00708
LeftLeg  32.7699 9.71161 7.05213
LeftFoot  -10.2463 0.160068 -11.1349
LeftToes  -4.0021e-011 8.38769e-011 -3.99229e-011
244
root  -1.46549 39.5946 -4.53016 -122.391 -85.5729 121.087
RightUpLeg  -7.39909 -25.2642 -13.2097
RightLeg  24.3015 -8.35206 -4.33037
RightFoot  -4.48717 -0.889175 14.2338
RightToes  -1.33073e-015 0 -3.6325e-017
Spine  16.4029 1.65245 0.501535
Spine1  -15.488 1.71696 -2.33017
HEad  -3.489 6.86767 -1.88748
LeftShoulder1  0.453512 0.665317 -8.48143
LeftArm  -48.1282 3.83057 -26.8589
LeftForeArm  75.2371 -75.8123 -122.827
LeftHand  -0.204619 4.67409 33.4752
RightShoulder  0.422504 -1.0848 10.3038
RightArm  -61.2722 -9.61258 27.4693
RightForeArm  79.4009 74.4614 129.489
RightHand  -1.86445 1.07789 -32.8591
LeftUpLeg  -10.6952 19.0426 9.41622
LeftLeg  29.788 16.3033 10.282
LeftFoot  -10.7322 0.0974745 -6.49121
LeftToes  -4.0021e-011 8.38769e-011 -3.99229e-011
